<?xml version="1.0" encoding="UTF-8" standalone="no"?>
<!DOCTYPE svg PUBLIC "-//W3C//DTD SVG 1.1//EN" "http://www.w3.org/Graphics/SVG/1.1/DTD/svg11.dtd">
<svg width="100%" height="100%" viewBox="0 0 24 24" version="1.1" xmlns="http://www.w3.org/2000/svg" xmlns:xlink="http://www.w3.org/1999/xlink" xml:space="preserve" xmlns:serif="http://www.serif.com/" style="fill-rule:evenodd;clip-rule:evenodd;stroke-linejoin:round;stroke-miterlimit:2;">
    <g id="email.svg" transform="matrix(0.0104217,0,0,0.0104217,12.7742,11.7461)">
        <g transform="matrix(1,0,0,1,-845.5,-703.5)">
            <g id="packet">
                <path d="M1691,165.177C1691,73.952 1617.05,0 1525.82,0L165.177,0C73.952,0 0,73.952 0,165.177L0,1241.82C0,1333.05 73.952,1407 165.177,1407L1525.82,1407C1617.05,1407 1691,1333.05 1691,1241.82L1691,165.177ZM166.062,132L1527.12,132C1545.34,132 1560,146.528 1560,164.746L1560,166.179L869.916,856.337C861.499,864.754 851.708,866.012 846.598,866.012C841.488,866.012 831.664,864.754 823.245,856.337L133,166.085L133,164.746C133,146.528 147.846,132 166.062,132ZM1527.12,1275L166.062,1275C147.846,1275 133,1259.92 133,1241.7L133,352.961L729.826,949.777C761.024,980.974 802.51,998.153 846.629,998.153C890.754,998.15 932.157,980.967 963.353,949.771L1560,353.054L1560,1241.7C1560,1259.92 1545.34,1275 1527.12,1275Z" style="fill:rgb(65,139,251);fill-rule:nonzero;"/>
            </g>
        </g>
    </g>
</svg>